<svg width="116" height="16" viewBox="0 0 116 16" fill="none" xmlns="http://www.w3.org/2000/svg">
<path d="M0.340781 13C0.238115 13 0.158781 12.972 0.102781 12.916C0.0467813 12.8507 0.0187813 12.7713 0.0187813 12.678V3.536C0.0187813 3.43333 0.0467813 3.354 0.102781 3.298C0.158781 3.23267 0.238115 3.2 0.340781 3.2H3.89678C4.58745 3.2 5.18478 3.312 5.68878 3.536C6.20212 3.76 6.59878 4.096 6.87878 4.544C7.15878 4.98267 7.29878 5.53333 7.29878 6.196C7.29878 6.85867 7.15878 7.40933 6.87878 7.848C6.59878 8.28667 6.20212 8.618 5.68878 8.842C5.18478 9.066 4.58745 9.178 3.89678 9.178H1.41878V12.678C1.41878 12.7713 1.38611 12.8507 1.32078 12.916C1.26478 12.972 1.18545 13 1.08278 13H0.340781ZM1.40478 8.002H3.82678C4.51745 8.002 5.03545 7.848 5.38078 7.54C5.72611 7.232 5.89878 6.784 5.89878 6.196C5.89878 5.61733 5.73078 5.16933 5.39478 4.852C5.05878 4.53467 4.53612 4.376 3.82678 4.376H1.40478V8.002ZM11.4255 13.14C10.7162 13.14 10.1235 13.0047 9.6475 12.734C9.1715 12.4633 8.8075 12.09 8.5555 11.614C8.3035 11.1287 8.1635 10.578 8.1355 9.962C8.12617 9.80333 8.1215 9.60267 8.1215 9.36C8.1215 9.108 8.12617 8.90733 8.1355 8.758C8.1635 8.13267 8.3035 7.582 8.5555 7.106C8.81683 6.63 9.1855 6.25667 9.6615 5.986C10.1375 5.71533 10.7255 5.58 11.4255 5.58C12.1255 5.58 12.7135 5.71533 13.1895 5.986C13.6655 6.25667 14.0295 6.63 14.2815 7.106C14.5428 7.582 14.6875 8.13267 14.7155 8.758C14.7248 8.90733 14.7295 9.108 14.7295 9.36C14.7295 9.60267 14.7248 9.80333 14.7155 9.962C14.6875 10.578 14.5475 11.1287 14.2955 11.614C14.0435 12.09 13.6795 12.4633 13.2035 12.734C12.7275 13.0047 12.1348 13.14 11.4255 13.14ZM11.4255 12.062C12.0042 12.062 12.4662 11.88 12.8115 11.516C13.1568 11.1427 13.3435 10.6013 13.3715 9.892C13.3808 9.752 13.3855 9.57467 13.3855 9.36C13.3855 9.14533 13.3808 8.968 13.3715 8.828C13.3435 8.11867 13.1568 7.582 12.8115 7.218C12.4662 6.84467 12.0042 6.658 11.4255 6.658C10.8468 6.658 10.3802 6.84467 10.0255 7.218C9.68017 7.582 9.49817 8.11867 9.4795 8.828C9.47017 8.968 9.4655 9.14533 9.4655 9.36C9.4655 9.57467 9.47017 9.752 9.4795 9.892C9.49817 10.6013 9.68017 11.1427 10.0255 11.516C10.3802 11.88 10.8468 12.062 11.4255 12.062ZM17.9432 13C17.8218 13 17.7285 12.972 17.6632 12.916C17.5978 12.8507 17.5418 12.762 17.4952 12.65L15.5072 6.154C15.4885 6.10733 15.4792 6.06067 15.4792 6.014C15.4792 5.93 15.5072 5.86 15.5632 5.804C15.6285 5.748 15.6985 5.72 15.7732 5.72H16.3892C16.4918 5.72 16.5712 5.748 16.6272 5.804C16.6832 5.86 16.7205 5.91133 16.7392 5.958L18.2932 11.236L19.9592 6.014C19.9778 5.94867 20.0152 5.88333 20.0712 5.818C20.1365 5.75267 20.2298 5.72 20.3512 5.72H20.8272C20.9485 5.72 21.0418 5.75267 21.1072 5.818C21.1725 5.88333 21.2098 5.94867 21.2192 6.014L22.8852 11.236L24.4392 5.958C24.4485 5.91133 24.4812 5.86 24.5372 5.804C24.5932 5.748 24.6725 5.72 24.7752 5.72H25.3912C25.4752 5.72 25.5452 5.748 25.6012 5.804C25.6572 5.86 25.6852 5.93 25.6852 6.014C25.6852 6.06067 25.6758 6.10733 25.6572 6.154L23.6692 12.65C23.6412 12.762 23.5898 12.8507 23.5152 12.916C23.4498 12.972 23.3518 13 23.2212 13H22.6752C22.5538 13 22.4512 12.972 22.3672 12.916C22.2925 12.8507 22.2412 12.762 22.2132 12.65L20.5892 7.638L18.9652 12.65C18.9278 12.762 18.8718 12.8507 18.7972 12.916C18.7225 12.972 18.6198 13 18.4892 13H17.9432ZM29.6624 13.14C28.701 13.14 27.9357 12.846 27.3664 12.258C26.797 11.6607 26.4844 10.8487 26.4284 9.822C26.419 9.70067 26.4144 9.54667 26.4144 9.36C26.4144 9.164 26.419 9.00533 26.4284 8.884C26.4657 8.22133 26.6197 7.64267 26.8904 7.148C27.161 6.644 27.5297 6.25667 27.9964 5.986C28.4724 5.71533 29.0277 5.58 29.6624 5.58C30.3717 5.58 30.9644 5.72933 31.4404 6.028C31.9257 6.32667 32.2944 6.75133 32.5464 7.302C32.7984 7.85267 32.9244 8.49667 32.9244 9.234V9.472C32.9244 9.57467 32.8917 9.654 32.8264 9.71C32.7704 9.766 32.6957 9.794 32.6024 9.794H27.7584C27.7584 9.80333 27.7584 9.822 27.7584 9.85C27.7584 9.878 27.7584 9.90133 27.7584 9.92C27.777 10.3027 27.861 10.662 28.0104 10.998C28.1597 11.3247 28.3744 11.5907 28.6544 11.796C28.9344 12.0013 29.2704 12.104 29.6624 12.104C29.9984 12.104 30.2784 12.0527 30.5024 11.95C30.7264 11.8473 30.9084 11.7353 31.0484 11.614C31.1884 11.4833 31.2817 11.3853 31.3284 11.32C31.4124 11.1987 31.4777 11.1287 31.5244 11.11C31.571 11.082 31.6457 11.068 31.7484 11.068H32.4204C32.5137 11.068 32.5884 11.096 32.6444 11.152C32.7097 11.1987 32.7377 11.2687 32.7284 11.362C32.719 11.502 32.6444 11.6747 32.5044 11.88C32.3644 12.076 32.1637 12.272 31.9024 12.468C31.641 12.664 31.3237 12.8273 30.9504 12.958C30.577 13.0793 30.1477 13.14 29.6624 13.14ZM27.7584 8.828H31.5944V8.786C31.5944 8.366 31.515 7.99267 31.3564 7.666C31.207 7.33933 30.9877 7.08267 30.6984 6.896C30.409 6.7 30.0637 6.602 29.6624 6.602C29.261 6.602 28.9157 6.7 28.6264 6.896C28.3464 7.08267 28.1317 7.33933 27.9824 7.666C27.833 7.99267 27.7584 8.366 27.7584 8.786V8.828ZM34.6403 13C34.547 13 34.4677 12.972 34.4023 12.916C34.3463 12.8507 34.3183 12.7713 34.3183 12.678V6.056C34.3183 5.96267 34.3463 5.88333 34.4023 5.818C34.4677 5.75267 34.547 5.72 34.6403 5.72H35.2843C35.3777 5.72 35.457 5.75267 35.5223 5.818C35.5877 5.88333 35.6203 5.96267 35.6203 6.056V6.672C35.807 6.35467 36.0637 6.11667 36.3903 5.958C36.717 5.79933 37.109 5.72 37.5663 5.72H38.1263C38.2197 5.72 38.2943 5.75267 38.3503 5.818C38.4063 5.874 38.4343 5.94867 38.4343 6.042V6.616C38.4343 6.70933 38.4063 6.784 38.3503 6.84C38.2943 6.896 38.2197 6.924 38.1263 6.924H37.2863C36.7823 6.924 36.3857 7.07333 36.0963 7.372C35.807 7.66133 35.6623 8.058 35.6623 8.562V12.678C35.6623 12.7713 35.6297 12.8507 35.5643 12.916C35.499 12.972 35.4197 13 35.3263 13H34.6403ZM42.118 13.14C41.1566 13.14 40.3913 12.846 39.822 12.258C39.2526 11.6607 38.94 10.8487 38.884 9.822C38.8746 9.70067 38.87 9.54667 38.87 9.36C38.87 9.164 38.8746 9.00533 38.884 8.884C38.9213 8.22133 39.0753 7.64267 39.346 7.148C39.6166 6.644 39.9853 6.25667 40.452 5.986C40.928 5.71533 41.4833 5.58 42.118 5.58C42.8273 5.58 43.42 5.72933 43.896 6.028C44.3813 6.32667 44.75 6.75133 45.002 7.302C45.254 7.85267 45.38 8.49667 45.38 9.234V9.472C45.38 9.57467 45.3473 9.654 45.282 9.71C45.226 9.766 45.1513 9.794 45.058 9.794H40.214C40.214 9.80333 40.214 9.822 40.214 9.85C40.214 9.878 40.214 9.90133 40.214 9.92C40.2326 10.3027 40.3166 10.662 40.466 10.998C40.6153 11.3247 40.83 11.5907 41.11 11.796C41.39 12.0013 41.726 12.104 42.118 12.104C42.454 12.104 42.734 12.0527 42.958 11.95C43.182 11.8473 43.364 11.7353 43.504 11.614C43.644 11.4833 43.7373 11.3853 43.784 11.32C43.868 11.1987 43.9333 11.1287 43.98 11.11C44.0266 11.082 44.1013 11.068 44.204 11.068H44.876C44.9693 11.068 45.044 11.096 45.1 11.152C45.1653 11.1987 45.1933 11.2687 45.184 11.362C45.1746 11.502 45.1 11.6747 44.96 11.88C44.82 12.076 44.6193 12.272 44.358 12.468C44.0966 12.664 43.7793 12.8273 43.406 12.958C43.0326 13.0793 42.6033 13.14 42.118 13.14ZM40.214 8.828H44.05V8.786C44.05 8.366 43.9706 7.99267 43.812 7.666C43.6626 7.33933 43.4433 7.08267 43.154 6.896C42.8646 6.7 42.5193 6.602 42.118 6.602C41.7166 6.602 41.3713 6.7 41.082 6.896C40.802 7.08267 40.5873 7.33933 40.438 7.666C40.2886 7.99267 40.214 8.366 40.214 8.786V8.828ZM49.434 13.14C48.9206 13.14 48.4773 13.0513 48.104 12.874C47.7306 12.6873 47.4226 12.44 47.18 12.132C46.9466 11.8147 46.7693 11.4553 46.648 11.054C46.536 10.6527 46.4706 10.228 46.452 9.78C46.4426 9.63067 46.438 9.49067 46.438 9.36C46.438 9.22933 46.4426 9.08933 46.452 8.94C46.4706 8.50133 46.536 8.08133 46.648 7.68C46.7693 7.27867 46.9466 6.91933 47.18 6.602C47.4226 6.28467 47.7306 6.03733 48.104 5.86C48.4773 5.67333 48.9206 5.58 49.434 5.58C49.9846 5.58 50.442 5.678 50.806 5.874C51.17 6.07 51.4686 6.31267 51.702 6.602V3.382C51.702 3.28867 51.73 3.214 51.786 3.158C51.8513 3.09267 51.9306 3.06 52.024 3.06H52.696C52.7893 3.06 52.864 3.09267 52.92 3.158C52.9853 3.214 53.018 3.28867 53.018 3.382V12.678C53.018 12.7713 52.9853 12.8507 52.92 12.916C52.864 12.972 52.7893 13 52.696 13H52.066C51.9633 13 51.884 12.972 51.828 12.916C51.772 12.8507 51.744 12.7713 51.744 12.678V12.09C51.5106 12.3887 51.2073 12.6407 50.834 12.846C50.4606 13.042 49.994 13.14 49.434 13.14ZM49.728 12.006C50.1946 12.006 50.568 11.8987 50.848 11.684C51.128 11.4693 51.338 11.1987 51.478 10.872C51.618 10.536 51.6926 10.1953 51.702 9.85C51.7113 9.70067 51.716 9.52333 51.716 9.318C51.716 9.10333 51.7113 8.92133 51.702 8.772C51.6926 8.44533 51.6133 8.12333 51.464 7.806C51.324 7.48867 51.1093 7.22733 50.82 7.022C50.54 6.81667 50.176 6.714 49.728 6.714C49.252 6.714 48.874 6.82133 48.594 7.036C48.314 7.24133 48.1133 7.51667 47.992 7.862C47.8706 8.198 47.8006 8.562 47.782 8.954C47.7726 9.22467 47.7726 9.49533 47.782 9.766C47.8006 10.158 47.8706 10.5267 47.992 10.872C48.1133 11.208 48.314 11.4833 48.594 11.698C48.874 11.9033 49.252 12.006 49.728 12.006ZM61.5698 13.14C61.0098 13.14 60.5431 13.042 60.1698 12.846C59.7964 12.6407 59.4978 12.3887 59.2738 12.09V12.678C59.2738 12.7713 59.2411 12.8507 59.1758 12.916C59.1198 12.972 59.0451 13 58.9518 13H58.3078C58.2144 13 58.1351 12.972 58.0698 12.916C58.0138 12.8507 57.9858 12.7713 57.9858 12.678V3.382C57.9858 3.28867 58.0138 3.214 58.0698 3.158C58.1351 3.09267 58.2144 3.06 58.3078 3.06H58.9798C59.0824 3.06 59.1618 3.09267 59.2178 3.158C59.2738 3.214 59.3018 3.28867 59.3018 3.382V6.602C59.5351 6.31267 59.8338 6.07 60.1978 5.874C60.5711 5.678 61.0284 5.58 61.5698 5.58C62.0924 5.58 62.5358 5.67333 62.8998 5.86C63.2731 6.03733 63.5764 6.28467 63.8098 6.602C64.0524 6.91933 64.2344 7.27867 64.3558 7.68C64.4771 8.08133 64.5424 8.50133 64.5518 8.94C64.5611 9.08933 64.5658 9.22933 64.5658 9.36C64.5658 9.49067 64.5611 9.63067 64.5518 9.78C64.5424 10.228 64.4771 10.6527 64.3558 11.054C64.2344 11.4553 64.0524 11.8147 63.8098 12.132C63.5764 12.44 63.2731 12.6873 62.8998 12.874C62.5358 13.0513 62.0924 13.14 61.5698 13.14ZM61.2758 12.006C61.7611 12.006 62.1391 11.9033 62.4098 11.698C62.6898 11.4833 62.8904 11.208 63.0118 10.872C63.1331 10.5267 63.2031 10.158 63.2218 9.766C63.2311 9.49533 63.2311 9.22467 63.2218 8.954C63.2031 8.562 63.1331 8.198 63.0118 7.862C62.8904 7.51667 62.6898 7.24133 62.4098 7.036C62.1391 6.82133 61.7611 6.714 61.2758 6.714C60.8371 6.714 60.4731 6.81667 60.1838 7.022C59.8944 7.22733 59.6751 7.48867 59.5258 7.806C59.3858 8.12333 59.3111 8.44533 59.3018 8.772C59.2924 8.92133 59.2878 9.10333 59.2878 9.318C59.2878 9.52333 59.2924 9.70067 59.3018 9.85C59.3204 10.1953 59.3951 10.536 59.5258 10.872C59.6658 11.1987 59.8758 11.4693 60.1558 11.684C60.4451 11.8987 60.8184 12.006 61.2758 12.006ZM67.0185 15.66C66.9439 15.66 66.8785 15.632 66.8225 15.576C66.7665 15.52 66.7385 15.4547 66.7385 15.38C66.7385 15.3427 66.7432 15.3053 66.7525 15.268C66.7619 15.2307 66.7805 15.184 66.8085 15.128L67.8865 12.566L65.2125 6.252C65.1659 6.14 65.1425 6.06067 65.1425 6.014C65.1425 5.93 65.1705 5.86 65.2265 5.804C65.2825 5.748 65.3525 5.72 65.4365 5.72H66.1225C66.2159 5.72 66.2905 5.74333 66.3465 5.79C66.4025 5.83667 66.4399 5.89267 66.4585 5.958L68.5865 11.054L70.7705 5.958C70.7985 5.89267 70.8359 5.83667 70.8825 5.79C70.9385 5.74333 71.0179 5.72 71.1205 5.72H71.7785C71.8625 5.72 71.9325 5.748 71.9885 5.804C72.0445 5.86 72.0725 5.92533 72.0725 6C72.0725 6.04667 72.0492 6.13067 72.0025 6.252L68.0265 15.422C67.9985 15.4873 67.9565 15.5433 67.9005 15.59C67.8539 15.6367 67.7792 15.66 67.6765 15.66H67.0185Z" fill="#637E8E"/>
<path d="M108.044 15.5325L110.099 7.88869C110.173 7.61411 110.425 7.42116 110.707 7.42116H113.777C114.059 7.42116 114.311 7.22821 114.385 6.95363L115.038 4.50465C115.142 4.10391 114.845 3.71059 114.43 3.71059H110.61C108.712 3.71059 107.043 4.98703 106.554 6.82005L104.299 15.2059C104.188 15.6067 104.492 16 104.907 16H107.436C107.718 16 107.97 15.8071 108.044 15.5325Z" fill="#637E8E"/>
<path d="M91.0611 15.2059C90.9573 15.6067 91.2539 16 91.6692 16H94.2056C94.4874 16 94.7396 15.807 94.8137 15.5324L98.7592 0.794062C98.8631 0.393321 98.559 0 98.1437 0H95.6073C95.3255 0 95.0733 0.19295 94.9991 0.467532L91.0611 15.2059Z" fill="#637E8E"/>
<path d="M97.6764 15.2059C97.5726 15.6067 97.8692 16 98.2845 16H100.821C101.103 16 101.355 15.807 101.429 15.5324L105.375 0.794062C105.478 0.393321 105.174 0 104.759 0H102.223C101.941 0 101.689 0.19295 101.614 0.467532L97.6764 15.2059Z" fill="#637E8E"/>
<path d="M85.5729 5.34323C85.1576 5.34323 84.8535 5.7514 84.9648 6.15214L86.4777 11.7922C86.5148 11.9406 86.4629 12.0519 86.4109 12.1113C86.359 12.1781 86.27 12.2597 86.1143 12.2597H78.0824C77.8006 12.2597 77.5484 12.4527 77.4743 12.7273L76.8216 15.1688C76.7178 15.5696 77.0145 15.9629 77.4298 15.9629H86.1143C86.8708 15.9629 87.6346 15.7848 88.265 15.3692C89.8521 14.3228 90.5122 12.5195 90.0524 10.82L88.71 5.81077C88.6358 5.53618 88.3837 5.34323 88.1019 5.34323H85.5729Z" fill="#637E8E"/>
<path d="M83.5928 10.6197C84.0081 10.6197 84.3122 10.2189 84.201 9.81817L82.688 4.1781C82.651 4.02968 82.7029 3.91836 82.7548 3.85899C82.8067 3.7922 82.8957 3.71057 83.0514 3.71057H91.0833C91.3651 3.71057 91.6173 3.51762 91.6915 3.24304L92.3441 0.794062C92.4553 0.393321 92.1513 0 91.7359 0H83.0514C82.295 0 81.5311 0.178107 80.9007 0.593691C79.3136 1.64007 78.6536 3.44341 79.1059 5.14285L80.4483 10.1521C80.5225 10.4267 80.7746 10.6197 81.0564 10.6197H83.5928Z" fill="#637E8E"/>
</svg>
