<svg xmlns="http://www.w3.org/2000/svg" width="20" height="20" fill="none" viewBox="0 0 20 20"><path fill="#000" d="M10 2.612c2.407 0 2.692.01 3.64.053.88.038 1.354.186 1.671.31.419.161.722.358 1.035.672.317.317.51.616.672 1.035.123.316.271.795.31 1.672.042.95.053 1.235.053 3.64 0 2.407-.01 2.692-.053 3.639-.039.88-.186 1.355-.31 1.672a2.8 2.8 0 0 1-.672 1.035c-.317.316-.616.51-1.035.672-.317.123-.795.27-1.672.31-.95.042-1.235.052-3.64.052-2.407 0-2.692-.01-3.639-.052-.88-.04-1.355-.187-1.672-.31a2.8 2.8 0 0 1-1.035-.672 2.8 2.8 0 0 1-.672-1.035c-.123-.317-.271-.796-.31-1.672-.042-.95-.053-1.236-.053-3.64 0-2.407.011-2.693.053-3.64.039-.88.187-1.355.31-1.671.162-.42.36-.722.672-1.035.317-.317.616-.51 1.035-.673.317-.123.796-.27 1.672-.31.947-.042 1.232-.052 3.64-.052m0-1.623c-2.447 0-2.753.01-3.714.053-.957.042-1.615.197-2.186.419a4.4 4.4 0 0 0-1.598 1.042c-.503.5-.81 1.003-1.042 1.594-.221.574-.376 1.229-.418 2.186C.999 7.248.989 7.553.989 10s.01 2.753.053 3.714c.042.957.197 1.615.418 2.185a4.4 4.4 0 0 0 1.042 1.598c.5.5 1.003.81 1.595 1.039.574.222 1.228.377 2.186.419.96.042 1.267.053 3.713.053s2.753-.011 3.714-.053c.957-.042 1.615-.197 2.185-.42a4.4 4.4 0 0 0 1.595-1.038c.5-.5.81-1.003 1.038-1.594.222-.574.377-1.228.42-2.186.041-.96.052-1.267.052-3.713s-.01-2.753-.053-3.714c-.042-.957-.197-1.615-.419-2.186a4.2 4.2 0 0 0-1.031-1.601c-.5-.5-1.003-.81-1.594-1.039-.574-.221-1.229-.376-2.186-.418C12.752 1 12.446.989 10 .989"></path><path fill="#000" d="M10 5.371a4.63 4.63 0 0 0 0 9.257 4.63 4.63 0 0 0 0-9.257m0 7.631a3.003 3.003 0 1 1 0-6.006 3.003 3.003 0 0 1 0 6.006M15.892 5.188a1.08 1.08 0 1 1-2.162 0 1.08 1.08 0 0 1 2.162 0"></path></svg>