<svg xmlns="http://www.w3.org/2000/svg" width="14" height="14" fill="none" viewBox="0 0 14 14"><path fill="#111619" d="M14 10.482v2.107a1.4 1.4 0 0 1-.957 1.337 1.4 1.4 0 0 1-.578.068 13.95 13.95 0 0 1-6.075-2.156 13.7 13.7 0 0 1-4.223-4.216 13.9 13.9 0 0 1-2.161-6.09A1.4 1.4 0 0 1 .839.12 1.4 1.4 0 0 1 1.407 0h2.111a1.41 1.41 0 0 1 1.408 1.208c.09.675.255 1.337.493 1.974a1.4 1.4 0 0 1-.317 1.483l-.894.892a11.25 11.25 0 0 0 4.224 4.215l.894-.892a1.41 1.41 0 0 1 1.485-.316 9 9 0 0 0 1.978.492 1.41 1.41 0 0 1 1.21 1.426"></path></svg>