<svg width="34" height="24" viewBox="0 0 34 24" fill="none" xmlns="http://www.w3.org/2000/svg">
<rect x="0.5" y="0.5" width="33" height="23" rx="3.5" fill="white"/>
<rect x="0.5" y="0.5" width="33" height="23" rx="3.5" stroke="#F2F4F7"/>
<path d="M12.3422 14.7345C12.3303 14.7262 12.3254 14.7123 12.3178 14.7106C12.0826 14.658 11.8576 14.5771 11.6441 14.4659C11.4714 14.3759 11.306 14.2736 11.1577 14.1462C11.0755 14.0756 10.9912 14.0063 10.9164 13.9281C10.6813 13.6826 10.4853 13.4094 10.3579 13.092C10.3025 12.9542 10.2476 12.8151 10.208 12.6723C10.174 12.5501 10.1566 12.4225 10.1422 12.2961C10.1272 12.1645 10.1145 12.0312 10.1183 11.8992C10.1292 11.5207 10.2033 11.1557 10.3582 10.8068C10.4694 10.5561 10.6132 10.3272 10.7876 10.1184C11.0057 9.85728 11.2668 9.6458 11.5629 9.47662C11.8517 9.31158 12.1618 9.20742 12.4872 9.1485C12.5875 9.13033 12.691 9.1266 12.7933 9.12304C12.9137 9.11886 13.0345 9.11796 13.1549 9.12298C13.35 9.13113 13.5431 9.16027 13.7287 9.22062C13.8981 9.27571 14.0682 9.33365 14.2282 9.41078C14.4232 9.5048 14.6065 9.62227 14.7697 9.76751C14.8398 9.82989 14.9176 9.88499 14.9805 9.9539C15.1468 10.1364 15.303 10.3268 15.4232 10.545C15.5162 10.7139 15.5964 10.888 15.6547 11.0711C15.7188 11.2723 15.7663 11.4779 15.7772 11.6901C15.7815 11.7725 15.7884 11.8548 15.7885 11.9372C15.7893 12.8419 15.789 13.7466 15.7888 14.6514C15.7888 14.6755 15.7859 14.6997 15.7868 14.7292C15.3214 14.7345 14.8534 14.7345 14.3797 14.7287C14.374 14.6236 14.3746 14.5242 14.3738 14.4248C14.3731 14.3426 14.3282 14.2787 14.2586 14.2617C14.1955 14.2464 14.1492 14.277 14.1014 14.3154C14.006 14.3921 13.9116 14.4731 13.806 14.5335C13.6861 14.6022 13.5544 14.65 13.4283 14.7078C13.4165 14.7132 13.408 14.7254 13.398 14.7345C13.0479 14.7345 12.6979 14.7345 12.3422 14.7345ZM14.0756 12.8183C14.078 12.8128 14.0793 12.8065 14.0829 12.8019C14.2949 12.525 14.3985 12.2155 14.3749 11.8643C14.3603 11.6474 14.2999 11.4478 14.1912 11.2591C14.0452 11.0057 13.8421 10.8128 13.5824 10.6865C13.3362 10.5667 13.0748 10.5133 12.7966 10.5472C12.6215 10.5685 12.4562 10.6144 12.2998 10.6911C12.1052 10.7866 11.9428 10.9249 11.81 11.0958C11.7011 11.236 11.6235 11.393 11.5784 11.5655C11.5357 11.7285 11.5075 11.891 11.529 12.0621C11.5486 12.2176 11.5774 12.3691 11.6453 12.5103C11.739 12.705 11.8582 12.879 12.0289 13.019C12.1581 13.125 12.2964 13.2105 12.4504 13.269C12.677 13.355 12.912 13.3772 13.1528 13.3444C13.3619 13.3158 13.5535 13.2435 13.7304 13.1291C13.8598 13.0455 13.9738 12.9454 14.0756 12.8183Z" fill="#01B3A9"/>
<path d="M22.0297 14.7345C22.0196 14.7265 22.0165 14.7126 22.0107 14.7115C21.759 14.6609 21.5223 14.569 21.2967 14.4484C21.1326 14.3606 20.9761 14.2605 20.8355 14.1374C20.7679 14.0783 20.6939 14.0251 20.6341 13.959C20.5327 13.8469 20.4325 13.7321 20.3461 13.6084C20.2508 13.4719 20.1606 13.3294 20.0881 13.1798C19.9888 12.975 19.9188 12.7579 19.8764 12.5327C19.8398 12.338 19.8267 12.1423 19.8273 11.9441C19.8297 11.1003 19.8312 10.2565 19.8257 9.41272C19.8246 9.25515 19.9597 9.11207 20.1265 9.11084C20.3908 9.1089 20.6552 9.10708 20.9194 9.11147C21.1005 9.11448 21.2323 9.23487 21.2317 9.43131C21.2291 10.2853 21.2279 11.1393 21.2322 11.9932C21.2335 12.2415 21.3045 12.4727 21.4343 12.6888C21.5523 12.8852 21.7066 13.0423 21.8983 13.1603C22.0622 13.2612 22.2409 13.3292 22.4346 13.3578C22.6567 13.3905 22.8743 13.3745 23.0847 13.3048C23.3485 13.2174 23.571 13.0654 23.7491 12.8478C23.9047 12.6577 24.0004 12.4424 24.0459 12.2033C24.0552 12.1542 24.0608 12.1036 24.0608 12.0537C24.0617 11.1794 24.062 10.3051 24.0609 9.43076C24.0607 9.24797 24.1796 9.11426 24.3751 9.11119C24.6373 9.10707 24.8997 9.10759 25.1619 9.11105C25.3468 9.1135 25.476 9.24826 25.4761 9.43359C25.4764 10.2957 25.4801 11.1578 25.4731 12.0199C25.4716 12.2024 25.4354 12.3853 25.4063 12.5666C25.3635 12.8333 25.2603 13.0812 25.1304 13.3147C25.0439 13.4702 24.9308 13.6113 24.8251 13.7555C24.7747 13.8243 24.719 13.8912 24.6564 13.949C24.5083 14.0856 24.3546 14.2148 24.1856 14.3274C23.9549 14.481 23.7026 14.5826 23.4438 14.6726C23.3809 14.6945 23.3151 14.7082 23.2535 14.7301C22.8493 14.7345 22.4423 14.7345 22.0297 14.7345Z" fill="#01B3A9"/>
<path d="M6.05877 14.7345C5.97463 14.5287 5.89612 14.3231 5.81782 14.1173C5.75857 13.9616 5.70025 13.8055 5.64034 13.6501C5.52671 13.3552 5.41068 13.0613 5.29854 12.7658C5.17393 12.4376 5.05371 12.1077 4.92947 11.7793C4.79258 11.4176 4.65321 11.0567 4.51507 10.6954C4.37681 10.3337 4.2405 9.97129 4.09932 9.61077C4.06526 9.5238 4.0381 9.44182 4.06213 9.34632C4.1081 9.16362 4.23613 9.11442 4.36153 9.11202C4.64201 9.10664 4.92278 9.10566 5.20321 9.11223C5.35319 9.11574 5.44348 9.16575 5.50579 9.33036C5.58601 9.54232 5.67316 9.75164 5.75524 9.96292C5.84739 10.2001 5.93621 10.4387 6.02835 10.6759C6.11968 10.9111 6.21433 11.145 6.3057 11.3801C6.39729 11.6159 6.48587 11.8528 6.57719 12.0887C6.66051 12.3039 6.74627 12.5182 6.82993 12.7333C6.89284 12.8951 6.9529 13.058 7.01721 13.2192C7.02981 13.2508 7.05083 13.2836 7.07705 13.3044C7.16209 13.3717 7.21091 13.3429 7.27271 13.238C7.32049 13.1568 7.34628 13.0624 7.37928 12.9729C7.50871 12.6219 7.63677 12.2704 7.76598 11.9194C7.93709 11.4545 8.10854 10.9897 8.28036 10.5251C8.43146 10.1165 8.58311 9.70812 8.73484 9.29975C8.78401 9.16741 8.89115 9.11406 9.02093 9.11189C9.31566 9.10696 9.61064 9.1056 9.90532 9.11185C10.1361 9.11675 10.2636 9.33361 10.1777 9.54965C10.1287 9.67281 10.0863 9.79858 10.0399 9.92277C9.96107 10.1335 9.88037 10.3435 9.80238 10.5545C9.71478 10.7915 9.63047 11.0297 9.54257 11.2666C9.44378 11.5328 9.3416 11.7978 9.24274 12.064C9.16642 12.2695 9.09405 12.4765 9.01794 12.6821C8.93657 12.9019 8.85214 13.1206 8.77044 13.3402C8.70919 13.5049 8.65102 13.6708 8.58991 13.8355C8.51177 14.0462 8.43216 14.2564 8.35297 14.4667C8.32024 14.5536 8.28697 14.6403 8.25767 14.7308C7.5291 14.7345 6.79679 14.7345 6.05877 14.7345Z" fill="#01B3A9"/>
<path d="M18.6012 14.7345C18.5866 14.7261 18.579 14.7125 18.5687 14.7102C18.3446 14.6599 18.1277 14.5859 17.9264 14.4771C17.7668 14.3909 17.6118 14.292 17.468 14.1814C17.3347 14.0789 17.2076 13.9633 17.0986 13.8358C16.9725 13.6882 16.8618 13.5258 16.7577 13.3615C16.6042 13.1192 16.5179 12.8472 16.4525 12.5703C16.4214 12.4388 16.4028 12.3013 16.4016 12.1662C16.3935 11.258 16.3924 10.3498 16.387 9.44159C16.3858 9.2362 16.5248 9.11178 16.7158 9.11074C16.97 9.10935 17.2242 9.10772 17.4783 9.11126C17.6836 9.11413 17.8014 9.22594 17.8018 9.4391C17.8033 10.2829 17.8019 11.1267 17.8023 11.9705C17.8024 12.257 17.8856 12.5175 18.0485 12.7538C18.2774 13.0858 18.5949 13.2787 18.9865 13.3541C19.063 13.3688 19.1426 13.3671 19.2246 13.3732C19.2263 13.3861 19.2297 13.3996 19.2297 13.413C19.2299 13.838 19.2298 14.2629 19.2295 14.6879C19.2295 14.6999 19.2267 14.7119 19.2276 14.7292C19.0223 14.7345 18.8146 14.7345 18.6012 14.7345Z" fill="#01B3A9"/>
<path d="M29.2103 10.5129C29.4074 10.5129 29.5985 10.5127 29.7896 10.513C29.8891 10.5132 29.9542 10.5784 29.9544 10.6774C29.9546 10.8014 29.9548 10.9254 29.9543 11.0494C29.9539 11.1436 29.8775 11.2199 29.783 11.22C29.5025 11.2204 29.2219 11.2203 28.9414 11.22C28.8915 11.2199 28.8466 11.2277 28.818 11.2752C28.7866 11.3275 28.8056 11.3704 28.8373 11.4153C28.9968 11.6421 29.155 11.87 29.3132 12.0978C29.3635 12.1703 29.3627 12.2894 29.2841 12.3477C29.1793 12.4253 29.0718 12.4996 28.9625 12.5707C28.8537 12.6415 28.7604 12.5764 28.7121 12.5073C28.5548 12.2822 28.4013 12.0544 28.2455 11.8283C28.1704 11.7193 28.0933 11.6116 28.012 11.4961C27.949 11.5844 27.8863 11.67 27.826 11.7573C27.655 12.0045 27.4867 12.2536 27.314 12.4996C27.2301 12.6192 27.1257 12.627 27.0049 12.5364C26.9289 12.4794 26.8485 12.428 26.7699 12.3744C26.6747 12.3094 26.6522 12.2038 26.7162 12.1099C26.8744 11.8779 27.033 11.6461 27.1929 11.4153C27.2216 11.3739 27.2422 11.3377 27.2107 11.2874C27.1809 11.2399 27.1406 11.22 27.0867 11.22C26.8041 11.2202 26.5216 11.2202 26.239 11.2201C26.1397 11.2201 26.0752 11.1546 26.0752 11.0541C26.0751 10.928 26.075 10.802 26.0751 10.676C26.0753 10.5799 26.1413 10.5131 26.2369 10.513C26.5195 10.5127 26.8021 10.5151 27.0846 10.5105C27.1255 10.5099 27.1747 10.4861 27.2042 10.4569C27.2428 10.4189 27.2303 10.3693 27.198 10.3237C27.086 10.1657 26.9762 10.0061 26.8663 9.84663C26.8158 9.7735 26.7664 9.6997 26.7176 9.62549C26.6533 9.52777 26.6747 9.42527 26.7692 9.36046C26.8547 9.30189 26.9395 9.24214 27.0229 9.18075C27.1227 9.10741 27.244 9.12179 27.3145 9.22199C27.4238 9.37736 27.5298 9.53508 27.638 9.69125C27.7586 9.86529 27.88 10.0387 28.0013 10.2123C28.0059 10.2187 28.0134 10.2231 28.02 10.2288C28.2137 9.94887 28.4073 9.66932 28.6007 9.38962C28.638 9.33555 28.6717 9.27868 28.7122 9.22706C28.7904 9.12722 28.8853 9.09079 29.036 9.19832C29.1118 9.25243 29.183 9.31436 29.2635 9.36023C29.3566 9.41334 29.3668 9.5466 29.3135 9.62302C29.2148 9.76441 29.115 9.90493 29.016 10.0461C28.9535 10.1353 28.8914 10.2247 28.8299 10.3146C28.8021 10.3554 28.7885 10.3969 28.8172 10.4459C28.8448 10.493 28.8859 10.5113 28.9358 10.5124C29.0252 10.5143 29.1147 10.5129 29.2103 10.5129Z" fill="#EF5423"/>
</svg>
