<svg width="34" height="24" viewBox="0 0 34 24" fill="none" xmlns="http://www.w3.org/2000/svg">
<rect x="0.5" y="0.5" width="33" height="23" rx="3.5" fill="white"/>
<rect x="0.5" y="0.5" width="33" height="23" rx="3.5" stroke="#F2F4F7"/>
<path fill-rule="evenodd" clip-rule="evenodd" d="M10.7471 15.8583H8.68738L7.14283 9.79247C7.06952 9.51344 6.91386 9.26676 6.68489 9.1505C6.11346 8.85833 5.48379 8.6258 4.79688 8.50853V8.27499H8.11496C8.5729 8.27499 8.91636 8.6258 8.9736 9.03323L9.775 13.4087L11.8337 8.27499H13.8362L10.7471 15.8583ZM14.9811 15.8583H13.0358L14.6376 8.27499H16.5829L14.9811 15.8583ZM19.0996 10.3758C19.1568 9.96738 19.5003 9.73384 19.901 9.73384C20.5307 9.6752 21.2166 9.79248 21.789 10.0836L22.1324 8.45091C21.56 8.21737 20.9303 8.1001 20.3589 8.1001C18.4709 8.1001 17.0971 9.1505 17.0971 10.6083C17.0971 11.7174 18.0702 12.2997 18.7571 12.6505C19.5003 13.0003 19.7865 13.2338 19.7292 13.5836C19.7292 14.1083 19.1568 14.3419 18.5854 14.3419C17.8985 14.3419 17.2116 14.167 16.5829 13.8748L16.2394 15.5086C16.9264 15.7997 17.6695 15.917 18.3564 15.917C20.4734 15.9746 21.789 14.9252 21.789 13.3501C21.789 11.3666 19.0996 11.2503 19.0996 10.3758ZM28.5969 15.8583L27.0523 8.27499H25.3933C25.0498 8.27499 24.7064 8.50853 24.5919 8.85833L21.7317 15.8583H23.7342L24.1339 14.7503H26.5944L26.8233 15.8583H28.5969ZM25.6795 10.3172L26.2509 13.1752H24.6491L25.6795 10.3172Z" fill="#172B85"/>
</svg>
